<?xml version="1.0" encoding="UTF-8" standalone="no"?>
<svg width="27px" height="27px" viewBox="0 0 27 27" version="1.1" xmlns="https://www.w3.org/2000/svg" xmlns:xlink="https://www.w3.org/1999/xlink" xmlns:sketch="https://www.bohemiancoding.com/sketch/ns">
    <!-- Generator: Sketch 3.5.2 (25235) - https://www.bohemiancoding.com/sketch -->
    <title>Artboard 11</title>
    <desc>Created with Sketch.</desc>
    <defs></defs>
    <g id="Welcome" stroke="none" stroke-width="1" fill="none" fill-rule="evenodd" sketch:type="MSPage">
        <g id="Artboard-11" sketch:type="MSArtboardGroup" fill="#F3F0EA">
            <path d="M21.9344773,6.92125623 C22.9480735,6.29482169 23.6192047,5.43978906 23.9478708,4.35236943 C22.9618725,4.87902911 21.9796375,5.24023935 20.998657,5.43978906 C20.1167781,4.48498158 19.0003169,4 17.6618179,4 C16.3534258,4 15.2482546,4.46224807 14.3463045,5.36148474 C13.4493722,6.26703628 12.9965155,7.36708565 12.9965155,8.65152904 C12.9965155,9.04178766 13.0454391,9.39036817 13.1432862,9.68590382 C9.28459566,9.55329167 6.09076398,7.9417383 3.57433572,4.83987695 C3.14782246,5.59892364 2.93456583,6.37186303 2.93456583,7.17132485 C2.93456583,8.81445254 3.6232593,10.1165776 4.99813735,11.072648 C4.21410562,11.0057105 3.52290324,10.8061607 2.93456583,10.4790508 C2.93456583,11.6523526 3.27703089,12.6324195 3.96321546,13.49503 C4.65190894,14.3487996 5.53629674,14.8931409 6.61637886,15.1255279 C6.22499021,15.2265658 5.81227591,15.2745587 5.38827155,15.2745587 C4.9968829,15.2745587 4.71964928,15.2417214 4.55531623,15.169732 C4.84383991,16.1258024 5.38827155,16.9012678 6.17481218,17.494865 C6.95884392,18.0909882 7.86079403,18.4054684 8.87439025,18.4332538 C7.20346182,19.7530605 5.29293329,20.4060175 3.1315146,20.4060175 C2.60213637,20.4060175 2.22705559,20.3984396 2,20.3580245 C4.12880297,21.7498206 6.49846048,22.4406667 9.12026261,22.4406667 C11.8035328,22.4406667 14.1744448,21.7561354 16.2380163,20.3870729 C18.3015878,19.0255881 19.8244911,17.3458342 20.8029627,15.3680187 C21.7864521,13.3927292 22.273179,11.3366093 22.273179,9.18955548 L22.273179,8.59848418 C23.2240527,7.87858965 23.993031,7.06776108 24.5813684,6.17231332 C23.7283419,6.54236437 22.846463,6.79369597 21.9344773,6.92125623 L21.9344773,6.92125623 Z" id="Shape" sketch:type="MSShapeGroup"></path>
        </g>
    </g>
</svg>
